<svg xmlns="http://www.w3.org/2000/svg" viewBox="0 0 1200 630" role="img" aria-labelledby="title desc">
  <title id="title">IntelliDhan — Signals with a thesis</title>
  <desc id="desc">A navy IntelliDhan social card with the lotus monogram, warm editorial wordmark, and signal-engine tagline.</desc>
  <rect width="1200" height="630" fill="#071B36"/>
  <circle cx="1060" cy="-40" r="300" fill="#F6A800" opacity=".055"/>
  <circle cx="-40" cy="650" r="280" fill="#E56F2D" opacity=".045"/>
  <g transform="translate(86 76) scale(.72)">
    <g fill="none" stroke-linecap="round" stroke-linejoin="round">
      <path d="M86 47h48c49 0 81 32 81 80 0 36-18 60-50 73" stroke="#F6A800" stroke-width="24"/>
      <path d="M53 65v98c0 31 19 48 52 48" stroke="#F8F4EC" stroke-width="24"/>
      <path d="M127 158c4-35 23-61 57-69" stroke="#F8F4EC" stroke-width="10"/>
    </g>
    <circle cx="53" cy="35" r="14" fill="#F8F4EC"/>
    <circle cx="187" cy="88" r="14" fill="#E56F2D"/>
    <path d="M112 208h32l-8 13h-16Z" fill="#F8F4EC"/>
    <path d="M128 220c-24-17-27-43 0-68 27 25 24 51 0 68Z" fill="#F8F4EC"/>
    <path d="M125 221c-32 2-51-14-53-43 28-1 49 15 53 43Z" fill="#F8F4EC"/>
    <path d="M131 221c32 2 51-14 53-43-28-1-49 15-53 43Z" fill="#F8F4EC"/>
  </g>
  <path d="M330.931 216.211L330.931 218L295.189 218L295.189 216.211L304.049 213.849L304.049 144.881L295.189 142.569L295.189 140.78L330.931 140.78L330.931 142.569L322.071 144.881L322.071 213.849L330.931 216.211ZM358.96 173.231L358.96 214.76L365.17 216.38L365.17 218L336.82 218L336.82 216.38L343.249 214.659L343.249 174.479Q342.321 173.669 340.701 172.134Q339.081 170.581 336.229 168.371L336.229 167.021L358.251 161.03L358.96 161.03L358.96 173.231ZM372.359 216.38L378.569 214.76L378.569 181.179Q378.569 177.989 377.539 175.998Q376.51 173.99 374.451 173.028Q372.409 172.049 369.169 172.049Q365.929 172.049 362.892 172.944Q359.871 173.821 357.239 175.07L356.8 174.041Q361.019 169.991 364.039 167.51Q367.06 165.029 369.456 163.764Q371.869 162.481 374.164 162.059Q376.459 161.621 379.261 161.621Q386.871 161.621 390.601 165.806Q394.33 169.991 394.33 178.361L394.33 214.659L400.709 216.38L400.709 218L372.359 218L372.359 216.38ZM427.007 202.289Q427.007 206.019 429.302 207.858Q431.597 209.681 435.917 209.681Q438.347 209.681 441.047 209.309Q443.747 208.921 447.409 207.959L447.409 210.069Q441.907 213.731 438.229 215.739Q434.567 217.73 431.732 218.54Q428.897 219.35 425.977 219.35Q421.708 219.35 418.384 217.713Q415.059 216.059 413.169 212.583Q411.279 209.09 411.279 203.639L411.279 171.931L403.449 166.16L403.449 165.029Q404.057 164.641 405.727 163.696Q407.398 162.751 409.744 161.401Q412.089 160.051 414.874 158.431Q417.658 156.811 420.577 155.09Q423.497 153.369 426.129 151.799L427.007 151.799L427.007 164.321L427.007 202.289ZM421.117 170.21L421.117 162.701L445.569 162.701L444.557 170.21L421.117 170.21ZM477.817 161.401Q484.247 161.401 488.837 163.966Q493.427 166.531 496.059 171.425Q498.709 176.319 499.198 183.339L462.917 183.339L462.917 179.441L491.807 179.441L484.787 181.921Q484.348 175.559 483.285 171.813Q482.239 168.05 480.45 166.413Q478.678 164.759 476.029 164.759Q472.687 164.759 470.274 166.767Q467.878 168.759 466.629 173.129Q465.397 177.5 465.397 184.571Q465.397 193.16 467.49 198.459Q469.599 203.741 473.7 206.154Q477.817 208.55 483.757 208.55Q486.727 208.55 489.36 207.858Q492.009 207.149 494.473 205.58Q496.937 204.011 499.147 201.53L500.278 202.441Q496.667 208.769 492.988 212.448Q489.309 216.11 485.293 217.713Q481.277 219.299 476.467 219.299Q468.789 219.299 462.849 216.059Q456.909 212.819 453.568 206.593Q450.227 200.349 450.227 191.439Q450.227 183.339 453.399 176.504Q456.589 169.67 462.748 165.536Q468.907 161.401 477.817 161.401ZM526.515 214.659L532.945 216.38L532.945 218L504.325 218L504.325 216.38L510.754 214.659L510.754 150.331Q510.045 149.859 508.797 148.998Q507.565 148.121 505.827 146.939Q504.105 145.741 502.013 144.239L502.013 142.94L525.773 137.641L526.515 137.641L526.515 148.019L526.515 214.659ZM559.023 214.659L565.453 216.38L565.453 218L536.833 218L536.833 216.38L543.262 214.659L543.262 150.331Q542.553 149.859 541.305 148.998Q540.073 148.121 538.335 146.939Q536.613 145.741 534.521 144.239L534.521 142.94L558.281 137.641L559.023 137.641L559.023 148.019L559.023 214.659ZM583.819 154.921Q579.769 154.921 577.407 152.289Q575.061 149.639 575.061 146.231Q575.061 142.889 577.407 140.51Q579.769 138.131 583.819 138.131Q587.869 138.131 590.097 140.51Q592.341 142.889 592.341 146.231Q592.341 149.639 590.097 152.289Q587.869 154.921 583.819 154.921ZM592.341 161.03L592.341 172.1L592.341 214.76L598.551 216.38L598.551 218L570.201 218L570.201 216.38L576.631 214.659L576.631 174.479Q576.04 173.939 575.011 173.079Q573.981 172.201 572.631 171.02Q571.281 169.839 569.611 168.371L569.611 167.021L591.649 161.03L592.341 161.03Z" fill="#F8F4EC" data-outlined-text="Intelli"/>
  <path d="M660.212 178.799Q660.212 161.621 653.023 153.284Q645.851 144.931 631.592 144.931L617.771 144.931L616.793 140.78L634.731 140.78Q648.771 140.78 658.558 145.1Q668.363 149.42 673.509 157.655Q678.673 165.89 678.673 177.601Q678.673 190.949 673.003 199.944Q667.333 208.921 657.579 213.461Q647.843 218 635.541 218L616.793 218L617.771 213.849L633.313 213.849Q641.953 213.849 647.944 210.339Q653.951 206.829 657.073 199.1Q660.212 191.371 660.212 178.799ZM599.681 218L599.681 216.211L608.541 213.849L608.541 144.881L599.681 142.569L599.681 140.78L626.563 140.78L626.563 218L599.681 218ZM720.537 216.38L726.747 214.76L726.747 181.179Q726.747 177.989 725.717 175.998Q724.688 173.99 722.629 173.028Q720.587 172.049 717.297 172.049Q714.107 172.049 711.053 172.944Q707.999 173.821 705.417 175.07L704.978 174.041Q709.197 169.991 712.217 167.51Q715.238 165.029 717.634 163.764Q720.047 162.481 722.342 162.059Q724.637 161.621 727.388 161.621Q735.049 161.621 738.745 165.806Q742.457 169.991 742.457 178.361L742.457 214.659L748.887 216.38L748.887 218L720.537 218L720.537 216.38ZM713.297 218L684.998 218L684.998 216.38L691.377 214.659L691.377 151.04Q690.668 150.5 689.419 149.589Q688.187 148.661 686.449 147.378Q684.728 146.079 682.619 144.509L682.619 143.21L706.379 137.641L707.138 137.641L707.138 162.059L707.138 214.76L713.297 216.38L713.297 218ZM787.217 182.63L787.335 185.229Q781.665 187.169 778.121 188.958Q774.577 190.73 772.721 192.603Q770.865 194.459 770.156 196.602Q769.447 198.729 769.447 201.311Q769.447 205.799 771.523 207.909Q773.615 210.001 776.805 210.001Q779.066 210.001 780.77 209.09Q782.475 208.179 783.42 206.322Q784.365 204.449 784.365 201.581L784.365 176.201Q784.365 171.459 781.867 168.86Q779.387 166.261 774.375 166.261Q771.827 166.261 769.582 166.565Q767.355 166.869 765.937 167.409L768.367 164.54Q768.047 167.679 767.658 170.007Q767.287 172.319 766.781 173.923Q766.275 175.509 765.617 176.369Q764.756 177.449 763.136 178.124Q761.516 178.799 759.575 178.799Q757.095 178.799 755.795 177.905Q754.496 177.011 754.496 175.34Q754.496 172.961 756.875 170.531Q759.255 168.101 763.136 166.025Q767.017 163.949 771.742 162.684Q776.467 161.401 781.226 161.401Q788.077 161.401 792.212 163.376Q796.346 165.35 798.202 168.995Q800.075 172.64 800.075 177.551L800.075 207.639Q800.075 209.141 800.548 210.086Q801.037 211.031 801.932 211.469Q802.826 211.891 804.007 211.891Q805.526 211.891 807.011 211.469Q808.496 211.031 810.065 210.069L810.065 212.33Q805.965 216.549 802.505 217.933Q799.046 219.299 794.895 219.299Q791.047 219.299 788.786 217.798Q786.525 216.279 785.495 213.224Q784.466 210.17 784.297 205.529L784.837 205.85Q783.825 210.17 781.715 213.14Q779.606 216.11 776.636 217.679Q773.666 219.249 770.055 219.249Q762.596 219.249 758.293 215.502Q754.007 211.739 754.007 205.04Q754.007 201.631 755.188 198.931Q756.386 196.231 759.778 193.801Q763.187 191.371 769.802 188.705Q776.417 186.039 787.217 182.63ZM834.092 173.231L834.092 214.76L840.302 216.38L840.302 218L811.952 218L811.952 216.38L818.381 214.659L818.381 174.479Q817.453 173.669 815.833 172.134Q814.213 170.581 811.361 168.371L811.361 167.021L833.383 161.03L834.092 161.03L834.092 173.231ZM847.491 216.38L853.701 214.76L853.701 181.179Q853.701 177.989 852.671 175.998Q851.642 173.99 849.583 173.028Q847.541 172.049 844.301 172.049Q841.061 172.049 838.024 172.944Q835.003 173.821 832.371 175.07L831.932 174.041Q836.151 169.991 839.171 167.51Q842.192 165.029 844.588 163.764Q847.001 162.481 849.296 162.059Q851.591 161.621 854.393 161.621Q862.003 161.621 865.733 165.806Q869.462 169.991 869.462 178.361L869.462 214.659L875.841 216.38L875.841 218L847.491 218L847.491 216.38Z" fill="#F6A800" data-outlined-text="Dhan"/>
  <path d="M119.75 352.194L115.55 351.294L119.122 348.5L119.722 348.5L121.7 362.356L120.594 362.572L114.856 352.878L116.6 355.044Q114.744 353.45 112.681 352.644Q110.628 351.828 108.378 351.828Q104.544 351.828 102.678 353.591Q100.822 355.344 100.822 358.222Q100.822 360.172 101.684 361.512Q102.556 362.844 104.056 363.762Q105.556 364.672 107.478 365.375Q109.4 366.078 111.472 366.8Q113.572 367.55 115.625 368.478Q117.678 369.406 119.384 370.803Q121.1 372.2 122.122 374.3Q123.144 376.4 123.144 379.494Q123.144 383.572 121.053 386.525Q118.972 389.478 115.409 391.072Q111.856 392.656 107.45 392.656Q104.394 392.656 101.956 392.253Q99.528 391.85 96.922 390.828L94.372 379.522L95.656 379.522L103.456 391.128L98.272 387.744Q100.728 389.122 102.706 389.825Q104.694 390.528 106.906 390.528Q110.356 390.528 112.737 389.572Q115.128 388.606 116.338 386.769Q117.556 384.922 117.556 382.278Q117.556 379.878 116.487 378.303Q115.428 376.728 113.684 375.678Q111.95 374.628 109.859 373.878Q107.778 373.128 105.744 372.35Q103.672 371.6 101.853 370.691Q100.044 369.772 98.647 368.525Q97.25 367.278 96.434 365.497Q95.628 363.706 95.628 361.194Q95.628 357.622 97.353 355.044Q99.078 352.456 102.228 351.05Q105.378 349.644 109.644 349.644Q112.494 349.644 114.875 350.244Q117.256 350.844 119.75 352.194ZM134.326 356.844Q132.414 356.844 131.242 355.569Q130.07 354.294 130.07 352.578Q130.07 350.872 131.242 349.672Q132.414 348.472 134.326 348.472Q136.276 348.472 137.401 349.672Q138.526 350.872 138.526 352.578Q138.526 354.294 137.401 355.569Q136.276 356.844 134.326 356.844ZM137.992 362.722L137.87 368.394L137.87 389.872L141.976 391.006L141.976 392L127.37 392L127.37 391.006L131.476 389.844L131.476 369.078Q131.148 368.75 130.501 368.3Q129.864 367.85 129.039 367.325Q128.214 366.8 127.314 366.294L127.314 365.478L137.476 362.722L137.992 362.722ZM156.234 406.822Q152.868 406.822 150.44 406.325Q148.012 405.828 146.437 404.909Q144.862 404 144.112 402.753Q143.362 401.506 143.362 400.006Q143.362 398.872 143.962 397.831Q144.562 396.8 145.912 395.881Q147.262 394.972 149.474 394.203Q151.696 393.444 154.94 392.778L157.068 392.778L157.068 393.378Q153.74 393.856 151.865 394.728Q149.99 395.6 149.221 396.753Q148.462 397.906 148.462 399.294Q148.462 401.056 149.521 402.312Q150.59 403.578 152.596 404.253Q154.612 404.928 157.518 404.928Q160.64 404.928 162.787 404.15Q164.934 403.372 166.04 402.05Q167.146 400.728 167.146 399.144Q167.146 397.944 166.528 397.119Q165.918 396.294 164.568 395.731Q163.218 395.178 161.024 394.831Q158.84 394.494 155.662 394.278Q152.784 394.044 150.89 393.472Q148.996 392.9 147.928 392.047Q146.868 391.194 146.428 390.116Q145.996 389.028 145.996 387.744Q145.996 385.428 148.078 383.844Q150.168 382.25 153.834 381.5L154.462 382.222Q152.54 382.4 151.715 383.178Q150.89 383.956 150.89 385.006Q150.89 385.794 151.199 386.366Q151.518 386.928 152.418 387.341Q153.318 387.744 155.043 388.025Q156.768 388.306 159.59 388.55Q162.74 388.794 165.074 389.375Q167.418 389.956 168.965 390.931Q170.512 391.906 171.271 393.303Q172.04 394.7 172.04 396.594Q172.04 399.294 170.249 401.619Q168.468 403.944 164.953 405.378Q161.446 406.822 156.234 406.822ZM156.646 382.7Q153.318 382.7 150.703 381.444Q148.096 380.178 146.615 377.947Q145.134 375.706 145.134 372.828Q145.134 369.894 146.643 367.644Q148.162 365.394 150.749 364.137Q153.346 362.872 156.618 362.872Q159.196 362.872 161.324 363.622Q163.462 364.372 164.99 365.722Q166.518 367.072 167.353 368.872Q168.196 370.672 168.196 372.772Q168.196 375.678 166.696 377.928Q165.196 380.178 162.59 381.444Q159.984 382.7 156.646 382.7ZM157.218 381.022Q159.618 380.872 160.818 378.697Q162.018 376.522 161.84 372.95Q161.634 368.872 160.096 366.65Q158.568 364.428 156.046 364.55Q153.768 364.672 152.54 366.866Q151.312 369.05 151.49 372.594Q151.668 376.606 153.215 378.875Q154.762 381.144 157.218 381.022ZM160.518 364.494L159.412 363.172Q162.618 363.472 164.774 363.416Q166.94 363.35 168.29 363.144Q169.64 362.928 170.521 362.722Q171.412 362.506 172.134 362.506Q172.884 362.506 173.334 362.994Q173.784 363.472 173.784 364.522Q173.784 366.144 172.893 367.1Q172.012 368.056 170.896 368.056Q170.09 368.056 169.293 367.531Q168.496 367.006 167.418 366.303Q166.34 365.6 164.69 365.066Q163.04 364.522 160.518 364.494ZM185.304 368.722L185.304 389.872L189.316 391.006L189.316 392L174.804 392L174.804 391.006L178.91 389.844L178.91 369.256Q178.404 368.75 177.485 368.141Q176.566 367.522 174.71 366.528L174.71 365.806L184.338 362.722L184.816 362.722L185.304 368.722ZM193.432 391.006L197.482 389.872L197.482 373.044Q197.482 371.3 196.844 370.128Q196.216 368.956 194.941 368.356Q193.666 367.756 191.716 367.756Q189.588 367.756 187.685 368.422Q185.782 369.078 184.638 369.95L183.916 369.172Q185.96 367.25 187.563 366.022Q189.166 364.794 190.516 364.119Q191.866 363.444 193.169 363.172Q194.482 362.9 195.982 362.9Q200.032 362.9 201.944 365.244Q203.866 367.578 203.866 372.528L203.866 389.844L207.982 391.006L207.982 392L193.432 392L193.432 391.006ZM228.17 373.756L228.442 375.5Q224.964 376.494 222.77 377.45Q220.576 378.406 219.395 379.4Q218.214 380.394 217.764 381.491Q217.314 382.578 217.314 383.928Q217.314 386.206 218.542 387.35Q219.77 388.494 221.598 388.494Q223.014 388.494 224.092 387.875Q225.17 387.256 225.817 386.122Q226.464 384.978 226.464 383.45L226.464 370.85Q226.464 368.356 225.189 366.978Q223.914 365.6 221.176 365.6Q219.976 365.6 218.729 365.816Q217.492 366.022 216.592 366.444L218.026 364.972Q217.876 366.256 217.679 367.353Q217.492 368.45 217.229 369.247Q216.976 370.044 216.62 370.456Q216.17 371 215.354 371.3Q214.548 371.6 213.676 371.6Q212.514 371.6 211.876 371.141Q211.248 370.672 211.248 369.828Q211.248 368.656 212.373 367.456Q213.498 366.256 215.354 365.225Q217.22 364.194 219.451 363.575Q221.692 362.956 223.914 362.956Q227.176 362.956 229.145 363.922Q231.114 364.878 231.976 366.669Q232.848 368.45 232.848 370.906L232.848 386.478Q232.848 387.378 233.12 387.95Q233.392 388.522 233.917 388.794Q234.442 389.056 235.126 389.056Q235.942 389.056 236.795 388.794Q237.648 388.522 238.52 387.978L238.52 389.244Q236.692 391.222 235.004 391.925Q233.326 392.628 231.62 392.628Q229.82 392.628 228.695 391.878Q227.57 391.128 227.054 389.675Q226.548 388.222 226.492 386.178L226.67 386.122Q226.192 388.1 225.067 389.572Q223.942 391.044 222.367 391.85Q220.792 392.656 218.926 392.656Q215.392 392.656 213.151 390.772Q210.92 388.878 210.92 385.372Q210.92 383.544 211.595 382.1Q212.27 380.656 214.079 379.353Q215.898 378.05 219.301 376.7Q222.714 375.35 228.17 373.756ZM249.564 389.844L253.698 391.006L253.698 392L239.064 392L239.064 391.006L243.17 389.844L243.17 354.556Q242.748 354.2 242.083 353.769Q241.426 353.328 240.498 352.803Q239.57 352.278 238.398 351.678L238.398 350.994L249.264 348.294L249.714 348.294L249.564 353.694L249.564 389.844ZM267.804 362.872Q269.866 362.872 271.488 363.247Q273.11 363.622 274.91 364.456L275.66 372.228L274.46 372.228L270.738 364.456L273.054 367.044Q271.666 365.778 270.419 365.216Q269.182 364.644 267.588 364.644Q265.16 364.644 263.81 365.675Q262.46 366.706 262.46 368.656Q262.46 369.922 263.06 370.869Q263.66 371.806 265.113 372.65Q266.566 373.494 269.116 374.45Q271.038 375.144 272.435 376.025Q273.832 376.906 274.741 378.003Q275.66 379.1 276.11 380.469Q276.56 381.828 276.56 383.506Q276.56 386.328 275.069 388.391Q273.588 390.444 271.085 391.55Q268.582 392.656 265.432 392.656Q263.21 392.656 261.457 392.281Q259.704 391.906 258.166 391.156L256.704 382.606L257.96 382.606L262.704 391.372L260.116 389.422Q261.054 389.956 261.907 390.275Q262.76 390.594 263.594 390.744Q264.438 390.894 265.282 390.894Q267.916 390.894 269.716 389.619Q271.516 388.344 271.516 385.794Q271.516 384.678 271.085 383.825Q270.654 382.972 269.782 382.25Q268.91 381.528 267.588 380.891Q266.266 380.244 264.466 379.55Q262.104 378.65 260.566 377.478Q259.038 376.306 258.316 374.731Q257.604 373.156 257.604 371.094Q257.604 368.478 258.982 366.65Q260.36 364.822 262.666 363.847Q264.982 362.872 267.804 362.872ZM332.416 365.628L328.432 364.644L328.432 363.528L338.482 363.528L338.482 364.644L335.06 365.628L326.988 392.572L324.438 392.572L314.388 369.772L316.038 369.5L306.766 392.572L304.254 392.572L295.666 365.928L292.01 364.644L292.01 363.528L306.354 363.528L306.354 364.644L302.388 365.778L308.604 385.972L307.16 386.75L315.954 362.9L318.438 362.9L328.366 385.794L326.904 386.778L332.416 365.628ZM347.176 356.844Q345.264 356.844 344.092 355.569Q342.92 354.294 342.92 352.578Q342.92 350.872 344.092 349.672Q345.264 348.472 347.176 348.472Q349.126 348.472 350.251 349.672Q351.376 350.872 351.376 352.578Q351.376 354.294 350.251 355.569Q349.126 356.844 347.176 356.844ZM350.842 362.722L350.72 368.394L350.72 389.872L354.826 391.006L354.826 392L340.22 392L340.22 391.006L344.326 389.844L344.326 369.078Q343.998 368.75 343.351 368.3Q342.714 367.85 341.889 367.325Q341.064 366.8 340.164 366.294L340.164 365.478L350.326 362.722L350.842 362.722ZM367.04 384.078Q367.04 386.122 368.324 387.163Q369.618 388.194 371.896 388.194Q373.096 388.194 374.474 387.969Q375.862 387.744 377.634 387.228L377.634 388.456Q375.196 390.078 373.499 390.978Q371.812 391.878 370.518 392.253Q369.234 392.628 367.912 392.628Q365.84 392.628 364.199 391.822Q362.568 391.006 361.603 389.319Q360.646 387.622 360.646 384.978L360.646 367.972L356.868 365.328L356.868 364.7Q357.346 364.372 358.115 363.875Q358.884 363.378 359.812 362.778Q360.74 362.178 361.799 361.475Q362.868 360.772 364.003 360.041Q365.146 359.3 366.262 358.578L367.04 358.578L367.04 364.456L367.04 384.078ZM364.64 366.95L364.64 363.528L376.696 363.528L376.19 366.95L364.64 366.95ZM397.188 391.006L401.238 389.872L401.238 373.044Q401.238 371.3 400.61 370.128Q399.982 368.956 398.707 368.356Q397.432 367.756 395.482 367.756Q393.354 367.756 391.441 368.422Q389.538 369.078 388.404 369.95L387.71 369.172Q389.754 367.25 391.338 366.022Q392.932 364.794 394.282 364.119Q395.632 363.444 396.944 363.172Q398.266 362.9 399.738 362.9Q403.816 362.9 405.719 365.244Q407.632 367.578 407.632 372.528L407.632 389.844L411.766 391.006L411.766 392L397.188 392L397.188 391.006ZM393.166 392L378.588 392L378.588 391.006L382.666 389.844L382.666 354.65Q382.282 354.294 381.607 353.844Q380.932 353.394 380.013 352.869Q379.104 352.344 377.932 351.744L377.932 351.022L388.788 348.294L389.238 348.294L389.06 359.694L389.06 389.872L393.166 391.006L393.166 392ZM445.31 373.756L445.582 375.5Q442.104 376.494 439.91 377.45Q437.716 378.406 436.535 379.4Q435.354 380.394 434.904 381.491Q434.454 382.578 434.454 383.928Q434.454 386.206 435.682 387.35Q436.91 388.494 438.738 388.494Q440.154 388.494 441.232 387.875Q442.31 387.256 442.957 386.122Q443.604 384.978 443.604 383.45L443.604 370.85Q443.604 368.356 442.329 366.978Q441.054 365.6 438.316 365.6Q437.116 365.6 435.869 365.816Q434.632 366.022 433.732 366.444L435.166 364.972Q435.016 366.256 434.819 367.353Q434.632 368.45 434.369 369.247Q434.116 370.044 433.76 370.456Q433.31 371 432.494 371.3Q431.688 371.6 430.816 371.6Q429.654 371.6 429.016 371.141Q428.388 370.672 428.388 369.828Q428.388 368.656 429.513 367.456Q430.638 366.256 432.494 365.225Q434.36 364.194 436.591 363.575Q438.832 362.956 441.054 362.956Q444.316 362.956 446.285 363.922Q448.254 364.878 449.116 366.669Q449.988 368.45 449.988 370.906L449.988 386.478Q449.988 387.378 450.26 387.95Q450.532 388.522 451.057 388.794Q451.582 389.056 452.266 389.056Q453.082 389.056 453.935 388.794Q454.788 388.522 455.66 387.978L455.66 389.244Q453.832 391.222 452.144 391.925Q450.466 392.628 448.76 392.628Q446.96 392.628 445.835 391.878Q444.71 391.128 444.194 389.675Q443.688 388.222 443.632 386.178L443.81 386.122Q443.332 388.1 442.207 389.572Q441.082 391.044 439.507 391.85Q437.932 392.656 436.066 392.656Q432.532 392.656 430.291 390.772Q428.06 388.878 428.06 385.372Q428.06 383.544 428.735 382.1Q429.41 380.656 431.219 379.353Q433.038 378.05 436.441 376.7Q439.854 375.35 445.31 373.756ZM479.81 384.078Q479.81 386.122 481.094 387.163Q482.388 388.194 484.666 388.194Q485.866 388.194 487.244 387.969Q488.632 387.744 490.404 387.228L490.404 388.456Q487.966 390.078 486.269 390.978Q484.582 391.878 483.288 392.253Q482.004 392.628 480.682 392.628Q478.61 392.628 476.969 391.822Q475.338 391.006 474.373 389.319Q473.416 387.622 473.416 384.978L473.416 367.972L469.638 365.328L469.638 364.7Q470.116 364.372 470.885 363.875Q471.654 363.378 472.582 362.778Q473.51 362.178 474.569 361.475Q475.638 360.772 476.773 360.041Q477.916 359.3 479.032 358.578L479.81 358.578L479.81 364.456L479.81 384.078ZM477.41 366.95L477.41 363.528L489.466 363.528L488.96 366.95L477.41 366.95ZM509.958 391.006L514.008 389.872L514.008 373.044Q514.008 371.3 513.38 370.128Q512.752 368.956 511.477 368.356Q510.202 367.756 508.252 367.756Q506.124 367.756 504.211 368.422Q502.308 369.078 501.174 369.95L500.48 369.172Q502.524 367.25 504.108 366.022Q505.702 364.794 507.052 364.119Q508.402 363.444 509.714 363.172Q511.036 362.9 512.508 362.9Q516.586 362.9 518.489 365.244Q520.402 367.578 520.402 372.528L520.402 389.844L524.536 391.006L524.536 392L509.958 392L509.958 391.006ZM505.936 392L491.358 392L491.358 391.006L495.436 389.844L495.436 354.65Q495.052 354.294 494.377 353.844Q493.702 353.394 492.783 352.869Q491.874 352.344 490.702 351.744L490.702 351.022L501.558 348.294L502.008 348.294L501.83 359.694L501.83 389.872L505.936 391.006L505.936 392ZM541.036 362.872Q544.28 362.872 546.614 364.222Q548.958 365.572 550.318 368.169Q551.686 370.756 551.986 374.478L532.636 374.478L532.674 372.444L548.508 372.106L545.63 373.428Q545.424 370.55 544.777 368.666Q544.13 366.772 543.033 365.844Q541.936 364.906 540.286 364.906Q538.252 364.906 536.752 366.078Q535.252 367.25 534.436 369.622Q533.63 371.994 533.63 375.594Q533.63 379.794 534.877 382.522Q536.124 385.25 538.458 386.6Q540.802 387.95 544.036 387.95Q545.48 387.95 546.83 387.594Q548.18 387.228 549.427 386.478Q550.674 385.728 551.752 384.594L552.408 385.278Q550.674 387.894 548.855 389.525Q547.036 391.156 545.03 391.906Q543.024 392.656 540.68 392.656Q536.808 392.656 533.78 390.903Q530.752 389.15 529.027 385.925Q527.302 382.7 527.302 378.228Q527.302 374.056 528.914 370.569Q530.536 367.072 533.611 364.972Q536.686 362.872 541.036 362.872ZM567.084 362.872Q569.146 362.872 570.768 363.247Q572.39 363.622 574.19 364.456L574.94 372.228L573.74 372.228L570.018 364.456L572.334 367.044Q570.946 365.778 569.699 365.216Q568.462 364.644 566.868 364.644Q564.44 364.644 563.09 365.675Q561.74 366.706 561.74 368.656Q561.74 369.922 562.34 370.869Q562.94 371.806 564.393 372.65Q565.846 373.494 568.396 374.45Q570.318 375.144 571.715 376.025Q573.112 376.906 574.021 378.003Q574.94 379.1 575.39 380.469Q575.84 381.828 575.84 383.506Q575.84 386.328 574.349 388.391Q572.868 390.444 570.365 391.55Q567.862 392.656 564.712 392.656Q562.49 392.656 560.737 392.281Q558.984 391.906 557.446 391.156L555.984 382.606L557.24 382.606L561.984 391.372L559.396 389.422Q560.334 389.956 561.187 390.275Q562.04 390.594 562.874 390.744Q563.718 390.894 564.562 390.894Q567.196 390.894 568.996 389.619Q570.796 388.344 570.796 385.794Q570.796 384.678 570.365 383.825Q569.934 382.972 569.062 382.25Q568.19 381.528 566.868 380.891Q565.546 380.244 563.746 379.55Q561.384 378.65 559.846 377.478Q558.318 376.306 557.596 374.731Q556.884 373.156 556.884 371.094Q556.884 368.478 558.262 366.65Q559.64 364.822 561.946 363.847Q564.262 362.872 567.084 362.872ZM586.546 356.844Q584.634 356.844 583.462 355.569Q582.29 354.294 582.29 352.578Q582.29 350.872 583.462 349.672Q584.634 348.472 586.546 348.472Q588.496 348.472 589.621 349.672Q590.746 350.872 590.746 352.578Q590.746 354.294 589.621 355.569Q588.496 356.844 586.546 356.844ZM590.212 362.722L590.09 368.394L590.09 389.872L594.196 391.006L594.196 392L579.59 392L579.59 391.006L583.696 389.844L583.696 369.078Q583.368 368.75 582.721 368.3Q582.084 367.85 581.259 367.325Q580.434 366.8 579.534 366.294L579.534 365.478L589.696 362.722L590.212 362.722ZM608.304 362.872Q610.366 362.872 611.988 363.247Q613.61 363.622 615.41 364.456L616.16 372.228L614.96 372.228L611.238 364.456L613.554 367.044Q612.166 365.778 610.919 365.216Q609.682 364.644 608.088 364.644Q605.66 364.644 604.31 365.675Q602.96 366.706 602.96 368.656Q602.96 369.922 603.56 370.869Q604.16 371.806 605.613 372.65Q607.066 373.494 609.616 374.45Q611.538 375.144 612.935 376.025Q614.332 376.906 615.241 378.003Q616.16 379.1 616.61 380.469Q617.06 381.828 617.06 383.506Q617.06 386.328 615.569 388.391Q614.088 390.444 611.585 391.55Q609.082 392.656 605.932 392.656Q603.71 392.656 601.957 392.281Q600.204 391.906 598.666 391.156L597.204 382.606L598.46 382.606L603.204 391.372L600.616 389.422Q601.554 389.956 602.407 390.275Q603.26 390.594 604.094 390.744Q604.938 390.894 605.782 390.894Q608.416 390.894 610.216 389.619Q612.016 388.344 612.016 385.794Q612.016 384.678 611.585 383.825Q611.154 382.972 610.282 382.25Q609.41 381.528 608.088 380.891Q606.766 380.244 604.966 379.55Q602.604 378.65 601.066 377.478Q599.538 376.306 598.816 374.731Q598.104 373.156 598.104 371.094Q598.104 368.478 599.482 366.65Q600.86 364.822 603.166 363.847Q605.482 362.872 608.304 362.872ZM626.388 383.9Q628.31 383.9 629.538 385.147Q630.766 386.394 630.766 388.222Q630.766 390.022 629.538 391.288Q628.31 392.544 626.36 392.544Q624.466 392.544 623.219 391.288Q621.982 390.022 621.982 388.222Q621.982 386.394 623.219 385.147Q624.466 383.9 626.388 383.9Z" fill="#F8F4EC" data-outlined-text="Signals with a thesis."/>
  <path d="M97.75 458L97.75 440L99.438 440L106.512 455.137L113.551 440L115.262 440L115.262 457.988L113.512 457.988L113.512 444.102L107.102 458L105.914 458L99.512 444.102L99.512 458L97.75 458ZM122.626 458.375Q121.098 458.375 120.067 457.824Q119.036 457.273 118.524 456.363Q118.013 455.449 118.013 454.375Q118.013 453.273 118.454 452.492Q118.899 451.711 119.669 451.211Q120.438 450.711 121.45 450.449Q122.473 450.199 123.716 450.008Q124.962 449.812 126.153 449.668Q127.348 449.523 128.251 449.387L127.598 449.789Q127.638 447.789 126.825 446.828Q126.013 445.863 124.001 445.863Q122.614 445.863 121.657 446.488Q120.7 447.113 120.313 448.461L118.524 447.938Q118.989 446.125 120.388 445.125Q121.786 444.125 124.024 444.125Q125.876 444.125 127.169 444.82Q128.462 445.512 129.001 446.824Q129.251 447.414 129.325 448.141Q129.399 448.863 129.399 449.613L129.399 458L127.763 458L127.763 454.613L128.239 454.812Q127.552 456.551 126.098 457.465Q124.649 458.375 122.626 458.375ZM122.837 456.789Q124.126 456.789 125.087 456.328Q126.052 455.863 126.638 455.059Q127.223 454.25 127.399 453.238Q127.552 452.586 127.563 451.805Q127.575 451.023 127.575 450.637L128.274 451Q127.337 451.125 126.243 451.25Q125.149 451.375 124.091 451.539Q123.036 451.699 122.188 451.926Q121.614 452.086 121.075 452.383Q120.536 452.676 120.192 453.164Q119.848 453.648 119.848 454.375Q119.848 454.961 120.141 455.512Q120.438 456.062 121.095 456.426Q121.751 456.789 122.837 456.789ZM132.65 458L132.65 444.5L134.298 444.5L134.298 447.75L133.974 447.324Q134.201 446.727 134.56 446.219Q134.923 445.711 135.349 445.387Q135.877 444.926 136.576 444.684Q137.275 444.438 137.986 444.395Q138.701 444.352 139.287 444.5L139.287 446.227Q138.548 446.039 137.673 446.141Q136.798 446.238 136.064 446.836Q135.388 447.363 135.048 448.094Q134.713 448.824 134.599 449.645Q134.486 450.461 134.486 451.262L134.486 458L132.65 458ZM141.651 458L141.663 440L143.514 440L143.514 451L149.538 444.5L151.987 444.5L145.663 451.25L152.811 458L150.139 458L143.514 451.5L143.514 458L141.651 458ZM159.773 458.375Q157.801 458.375 156.355 457.5Q154.914 456.625 154.113 455.039Q153.313 453.449 153.313 451.312Q153.313 449.102 154.098 447.488Q154.887 445.875 156.316 445Q157.75 444.125 159.699 444.125Q161.699 444.125 163.109 445.043Q164.523 445.961 165.25 447.676Q165.977 449.387 165.914 451.762L164.039 451.762L164.039 451.113Q163.988 448.488 162.906 447.152Q161.824 445.812 159.75 445.812Q157.574 445.812 156.418 447.227Q155.262 448.637 155.262 451.25Q155.262 453.801 156.418 455.207Q157.574 456.613 159.699 456.613Q161.148 456.613 162.23 455.945Q163.313 455.273 163.938 454.012L165.648 454.676Q164.852 456.438 163.293 457.406Q161.738 458.375 159.773 458.375ZM154.613 451.762L154.613 450.227L164.926 450.227L164.926 451.762L154.613 451.762ZM176.027 458Q174.886 458.238 173.78 458.188Q172.675 458.137 171.804 457.715Q170.937 457.289 170.488 456.387Q170.124 455.637 170.093 454.871Q170.062 454.102 170.062 453.113L170.062 440.75L171.886 440.75L171.886 453.039Q171.886 453.887 171.905 454.457Q171.925 455.023 172.163 455.461Q172.613 456.301 173.593 456.465Q174.573 456.625 176.027 456.387L176.027 458ZM167.175 446.074L167.175 444.5L176.027 444.5L176.027 446.074L167.175 446.074ZM189.289 458.375Q187.25 458.375 185.836 457.465Q184.426 456.551 183.691 454.945Q182.961 453.336 182.938 451.25Q182.961 449.125 183.711 447.52Q184.461 445.914 185.875 445.02Q187.289 444.125 189.301 444.125Q191.352 444.125 192.867 445.125Q194.387 446.125 194.949 447.863L193.148 448.438Q192.676 447.227 191.645 446.559Q190.613 445.887 189.289 445.887Q187.801 445.887 186.824 446.57Q185.852 447.25 185.375 448.465Q184.898 449.676 184.887 451.25Q184.914 453.676 186.012 455.145Q187.113 456.613 189.289 456.613Q190.664 456.613 191.633 455.984Q192.602 455.352 193.102 454.137L194.949 454.688Q194.199 456.488 192.75 457.434Q191.301 458.375 189.289 458.375ZM203.162 458.375Q201.15 458.375 199.724 457.465Q198.298 456.551 197.537 454.938Q196.775 453.324 196.775 451.238Q196.775 449.113 197.548 447.516Q198.326 445.914 199.755 445.02Q201.189 444.125 203.162 444.125Q205.189 444.125 206.619 445.031Q208.048 445.938 208.806 447.543Q209.564 449.148 209.564 451.238Q209.564 453.363 208.798 454.969Q208.037 456.574 206.599 457.477Q205.162 458.375 203.162 458.375ZM203.162 456.613Q205.412 456.613 206.509 455.121Q207.611 453.625 207.611 451.238Q207.611 448.789 206.505 447.34Q205.4 445.887 203.162 445.887Q201.65 445.887 200.67 446.57Q199.689 447.25 199.205 448.457Q198.724 449.664 198.724 451.238Q198.724 453.676 199.849 455.145Q200.974 456.613 203.162 456.613ZM222.063 458L222.063 451.113Q222.063 449.988 221.848 449.047Q221.637 448.102 221.168 447.395Q220.699 446.688 219.953 446.301Q219.211 445.914 218.148 445.914Q217.176 445.914 216.43 446.25Q215.688 446.586 215.18 447.219Q214.676 447.852 214.41 448.75Q214.148 449.648 214.148 450.801L212.852 450.512Q212.852 448.438 213.574 447.027Q214.301 445.613 215.574 444.891Q216.852 444.164 218.5 444.164Q219.711 444.164 220.617 444.539Q221.523 444.914 222.156 445.551Q222.789 446.188 223.176 447.008Q223.563 447.824 223.738 448.746Q223.914 449.664 223.914 450.574L223.914 458L222.063 458ZM212.301 458L212.301 444.5L213.961 444.5L213.961 447.824L214.148 447.824L214.148 458L212.301 458ZM234.514 458Q233.373 458.238 232.268 458.188Q231.163 458.137 230.291 457.715Q229.424 457.289 228.975 456.387Q228.612 455.637 228.58 454.871Q228.549 454.102 228.549 453.113L228.549 440.75L230.373 440.75L230.373 453.039Q230.373 453.887 230.393 454.457Q230.413 455.023 230.651 455.461Q231.1 456.301 232.08 456.465Q233.061 456.625 234.514 456.387L234.514 458ZM225.663 446.074L225.663 444.5L234.514 444.5L234.514 446.074L225.663 446.074ZM242.886 458.375Q240.913 458.375 239.468 457.5Q238.027 456.625 237.226 455.039Q236.425 453.449 236.425 451.312Q236.425 449.102 237.21 447.488Q237.999 445.875 239.429 445Q240.863 444.125 242.812 444.125Q244.812 444.125 246.222 445.043Q247.636 445.961 248.363 447.676Q249.089 449.387 249.027 451.762L247.152 451.762L247.152 451.113Q247.101 448.488 246.019 447.152Q244.937 445.812 242.863 445.812Q240.687 445.812 239.53 447.227Q238.374 448.637 238.374 451.25Q238.374 453.801 239.53 455.207Q240.687 456.613 242.812 456.613Q244.261 456.613 245.343 455.945Q246.425 455.273 247.05 454.012L248.761 454.676Q247.964 456.438 246.405 457.406Q244.851 458.375 242.886 458.375ZM237.726 451.762L237.726 450.227L248.038 450.227L248.038 451.762L237.726 451.762ZM250.288 458L255.561 451.176L250.401 444.5L252.6 444.5L256.639 449.762L260.639 444.5L262.838 444.5L257.674 451.176L262.963 458L260.748 458L256.639 452.586L252.498 458L250.288 458ZM272.314 458Q271.173 458.238 270.068 458.188Q268.963 458.137 268.091 457.715Q267.224 457.289 266.775 456.387Q266.412 455.637 266.38 454.871Q266.349 454.102 266.349 453.113L266.349 440.75L268.173 440.75L268.173 453.039Q268.173 453.887 268.193 454.457Q268.213 455.023 268.451 455.461Q268.9 456.301 269.88 456.465Q270.861 456.625 272.314 456.387L272.314 458ZM263.463 446.074L263.463 444.5L272.314 444.5L272.314 446.074L263.463 446.074ZM291.452 453.039Q290.623 453.039 289.948 452.656Q289.276 452.273 288.873 451.613Q288.475 450.949 288.475 450.125Q288.475 449.301 288.873 448.633Q289.276 447.961 289.944 447.586Q290.612 447.211 291.452 447.211Q292.225 447.211 292.873 447.586Q293.526 447.961 293.916 448.625Q294.311 449.289 294.311 450.125Q294.311 450.949 293.916 451.613Q293.526 452.273 292.873 452.656Q292.225 453.039 291.452 453.039ZM311.313 458L311.313 440L318.262 440Q318.523 440 318.855 440.02Q319.188 440.039 319.523 440.102Q320.938 440.312 321.918 441.082Q322.898 441.852 323.406 443.016Q323.914 444.176 323.914 445.586Q323.914 447.625 322.836 449.125Q321.762 450.625 319.762 451.012L319.125 451.164L313.148 451.164L313.148 458L311.313 458ZM322.211 458L318.664 450.676L320.426 450L324.324 458L322.211 458ZM313.148 449.414L318.211 449.414Q318.438 449.414 318.738 449.391Q319.039 449.363 319.324 449.301Q320.25 449.102 320.844 448.539Q321.438 447.977 321.73 447.203Q322.023 446.426 322.023 445.586Q322.023 444.75 321.73 443.969Q321.438 443.188 320.844 442.625Q320.25 442.062 319.324 441.863Q319.039 441.801 318.738 441.781Q318.438 441.762 318.211 441.762L313.148 441.762L313.148 449.414ZM327.325 441.938L327.325 439.875L329.161 439.875L329.161 441.938L327.325 441.938ZM327.325 458L327.325 444.5L329.161 444.5L329.161 458L327.325 458ZM338.514 458.375Q336.475 458.375 335.061 457.465Q333.651 456.551 332.916 454.945Q332.186 453.336 332.163 451.25Q332.186 449.125 332.936 447.52Q333.686 445.914 335.1 445.02Q336.514 444.125 338.526 444.125Q340.577 444.125 342.092 445.125Q343.612 446.125 344.174 447.863L342.373 448.438Q341.901 447.227 340.87 446.559Q339.838 445.887 338.514 445.887Q337.026 445.887 336.049 446.57Q335.077 447.25 334.6 448.465Q334.123 449.676 334.112 451.25Q334.139 453.676 335.237 455.145Q336.338 456.613 338.514 456.613Q339.889 456.613 340.858 455.984Q341.827 455.352 342.327 454.137L344.174 454.688Q343.424 456.488 341.975 457.434Q340.526 458.375 338.514 458.375ZM356.5 458L356.5 451.113Q356.5 449.988 356.285 449.047Q356.074 448.102 355.605 447.395Q355.137 446.688 354.391 446.301Q353.648 445.914 352.586 445.914Q351.613 445.914 350.867 446.25Q350.125 446.586 349.617 447.219Q349.113 447.852 348.848 448.75Q348.586 449.648 348.586 450.801L347.289 450.512Q347.289 448.438 348.012 447.027Q348.738 445.613 350.012 444.891Q351.289 444.164 352.938 444.164Q354.148 444.164 355.055 444.539Q355.961 444.914 356.594 445.551Q357.227 446.188 357.613 447.008Q358 447.824 358.176 448.746Q358.352 449.664 358.352 450.574L358.352 458L356.5 458ZM346.738 458L346.738 440L348.398 440L348.398 450.164L348.586 450.164L348.586 458L346.738 458ZM373.952 458Q372.811 458.238 371.706 458.188Q370.6 458.137 369.729 457.715Q368.862 457.289 368.413 456.387Q368.049 455.637 368.018 454.871Q367.987 454.102 367.987 453.113L367.987 440.75L369.811 440.75L369.811 453.039Q369.811 453.887 369.831 454.457Q369.85 455.023 370.088 455.461Q370.538 456.301 371.518 456.465Q372.498 456.625 373.952 456.387L373.952 458ZM365.1 446.074L365.1 444.5L373.952 444.5L373.952 446.074L365.1 446.074ZM376.613 458L376.613 444.5L378.261 444.5L378.261 447.75L377.937 447.324Q378.163 446.727 378.523 446.219Q378.886 445.711 379.312 445.387Q379.839 444.926 380.538 444.684Q381.238 444.438 381.948 444.395Q382.663 444.352 383.249 444.5L383.249 446.227Q382.511 446.039 381.636 446.141Q380.761 446.238 380.027 446.836Q379.351 447.363 379.011 448.094Q378.675 448.824 378.562 449.645Q378.448 450.461 378.448 451.262L378.448 458L376.613 458ZM389.488 458.375Q387.961 458.375 386.93 457.824Q385.898 457.273 385.387 456.363Q384.875 455.449 384.875 454.375Q384.875 453.273 385.316 452.492Q385.762 451.711 386.531 451.211Q387.301 450.711 388.313 450.449Q389.336 450.199 390.578 450.008Q391.824 449.812 393.016 449.668Q394.211 449.523 395.113 449.387L394.461 449.789Q394.5 447.789 393.688 446.828Q392.875 445.863 390.863 445.863Q389.477 445.863 388.52 446.488Q387.563 447.113 387.176 448.461L385.387 447.938Q385.852 446.125 387.25 445.125Q388.648 444.125 390.887 444.125Q392.738 444.125 394.031 444.82Q395.324 445.512 395.863 446.824Q396.113 447.414 396.188 448.141Q396.262 448.863 396.262 449.613L396.262 458L394.625 458L394.625 454.613L395.102 454.812Q394.414 456.551 392.961 457.465Q391.512 458.375 389.488 458.375ZM389.699 456.789Q390.988 456.789 391.949 456.328Q392.914 455.863 393.5 455.059Q394.086 454.25 394.262 453.238Q394.414 452.586 394.426 451.805Q394.438 451.023 394.438 450.637L395.137 451Q394.199 451.125 393.106 451.25Q392.012 451.375 390.953 451.539Q389.898 451.699 389.051 451.926Q388.477 452.086 387.938 452.383Q387.398 452.676 387.055 453.164Q386.711 453.648 386.711 454.375Q386.711 454.961 387.004 455.512Q387.301 456.062 387.957 456.426Q388.613 456.789 389.699 456.789ZM404.751 458.375Q402.864 458.375 401.524 457.434Q400.188 456.488 399.473 454.875Q398.763 453.262 398.763 451.238Q398.763 449.227 399.47 447.613Q400.177 446 401.501 445.062Q402.825 444.125 404.677 444.125Q406.575 444.125 407.876 445.051Q409.177 445.977 409.845 447.582Q410.513 449.188 410.513 451.238Q410.513 453.25 409.848 454.871Q409.188 456.488 407.899 457.434Q406.614 458.375 404.751 458.375ZM404.938 456.664Q406.376 456.664 407.313 455.965Q408.251 455.262 408.712 454.031Q409.177 452.801 409.177 451.238Q409.177 449.648 408.712 448.43Q408.251 447.211 407.317 446.523Q406.388 445.836 404.973 445.836Q403.524 445.836 402.575 446.551Q401.626 447.262 401.169 448.488Q400.712 449.711 400.712 451.238Q400.712 452.773 401.181 454.008Q401.649 455.238 402.587 455.953Q403.524 456.664 404.938 456.664ZM409.177 458L409.177 447.836L408.973 447.836L408.973 440L410.825 440L410.825 458L409.177 458ZM420.036 458.375Q418.063 458.375 416.618 457.5Q415.177 456.625 414.376 455.039Q413.575 453.449 413.575 451.312Q413.575 449.102 414.36 447.488Q415.149 445.875 416.579 445Q418.013 444.125 419.962 444.125Q421.962 444.125 423.372 445.043Q424.786 445.961 425.513 447.676Q426.239 449.387 426.177 451.762L424.302 451.762L424.302 451.113Q424.251 448.488 423.169 447.152Q422.087 445.812 420.013 445.812Q417.837 445.812 416.681 447.227Q415.524 448.637 415.524 451.25Q415.524 453.801 416.681 455.207Q417.837 456.613 419.962 456.613Q421.411 456.613 422.493 455.945Q423.575 455.273 424.2 454.012L425.911 454.676Q425.114 456.438 423.556 457.406Q422.001 458.375 420.036 458.375ZM414.876 451.762L414.876 450.227L425.188 450.227L425.188 451.762L414.876 451.762ZM440 458.375Q438.137 458.375 436.848 457.434Q435.563 456.488 434.898 454.871Q434.238 453.25 434.238 451.238Q434.238 449.188 434.906 447.582Q435.574 445.977 436.875 445.051Q438.176 444.125 440.074 444.125Q441.926 444.125 443.25 445.062Q444.574 446 445.281 447.613Q445.988 449.227 445.988 451.238Q445.988 453.262 445.273 454.875Q444.563 456.488 443.223 457.434Q441.887 458.375 440 458.375ZM433.926 464L433.926 444.5L435.574 444.5L435.574 454.664L435.773 454.664L435.773 464L433.926 464ZM439.813 456.664Q441.227 456.664 442.164 455.953Q443.102 455.238 443.57 454.008Q444.039 452.773 444.039 451.238Q444.039 449.711 443.574 448.488Q443.113 447.262 442.168 446.551Q441.227 445.836 439.773 445.836Q438.363 445.836 437.43 446.523Q436.5 447.211 436.035 448.43Q435.574 449.648 435.574 451.238Q435.574 452.801 436.035 454.031Q436.5 455.262 437.438 455.965Q438.375 456.664 439.813 456.664ZM448.988 458L448.988 439.625L450.823 439.625L450.823 458L448.988 458ZM458.438 458.375Q456.911 458.375 455.88 457.824Q454.848 457.273 454.337 456.363Q453.825 455.449 453.825 454.375Q453.825 453.273 454.266 452.492Q454.712 451.711 455.481 451.211Q456.251 450.711 457.263 450.449Q458.286 450.199 459.528 450.008Q460.774 449.812 461.966 449.668Q463.161 449.523 464.063 449.387L463.411 449.789Q463.45 447.789 462.638 446.828Q461.825 445.863 459.813 445.863Q458.427 445.863 457.47 446.488Q456.513 447.113 456.126 448.461L454.337 447.938Q454.802 446.125 456.2 445.125Q457.598 444.125 459.837 444.125Q461.688 444.125 462.981 444.82Q464.274 445.512 464.813 446.824Q465.063 447.414 465.138 448.141Q465.212 448.863 465.212 449.613L465.212 458L463.575 458L463.575 454.613L464.052 454.812Q463.364 456.551 461.911 457.465Q460.462 458.375 458.438 458.375ZM458.649 456.789Q459.938 456.789 460.899 456.328Q461.864 455.863 462.45 455.059Q463.036 454.25 463.212 453.238Q463.364 452.586 463.376 451.805Q463.388 451.023 463.388 450.637L464.087 451Q463.149 451.125 462.056 451.25Q460.962 451.375 459.903 451.539Q458.848 451.699 458.001 451.926Q457.427 452.086 456.888 452.383Q456.348 452.676 456.005 453.164Q455.661 453.648 455.661 454.375Q455.661 454.961 455.954 455.512Q456.251 456.062 456.907 456.426Q457.563 456.789 458.649 456.789ZM478.213 458L478.213 451.113Q478.213 449.988 477.998 449.047Q477.787 448.102 477.318 447.395Q476.849 446.688 476.103 446.301Q475.361 445.914 474.298 445.914Q473.326 445.914 472.58 446.25Q471.838 446.586 471.33 447.219Q470.826 447.852 470.56 448.75Q470.298 449.648 470.298 450.801L469.002 450.512Q469.002 448.438 469.724 447.027Q470.451 445.613 471.724 444.891Q473.002 444.164 474.65 444.164Q475.861 444.164 476.767 444.539Q477.673 444.914 478.306 445.551Q478.939 446.188 479.326 447.008Q479.713 447.824 479.888 448.746Q480.064 449.664 480.064 450.574L480.064 458L478.213 458ZM468.451 458L468.451 444.5L470.111 444.5L470.111 447.824L470.298 447.824L470.298 458L468.451 458ZM488.352 458.363Q485.977 458.363 484.445 457.34Q482.914 456.312 482.563 454.488L484.438 454.176Q484.738 455.324 485.805 456.008Q486.875 456.688 488.449 456.688Q489.988 456.688 490.875 456.043Q491.762 455.398 491.762 454.289Q491.762 453.664 491.481 453.27Q491.199 452.875 490.336 452.539Q489.477 452.199 487.762 451.738Q485.926 451.238 484.887 450.738Q483.852 450.238 483.414 449.582Q482.977 448.926 482.977 447.977Q482.977 446.824 483.625 445.957Q484.273 445.086 485.422 444.605Q486.574 444.125 488.102 444.125Q489.625 444.125 490.832 444.621Q492.039 445.113 492.773 446Q493.512 446.887 493.648 448.062L491.773 448.398Q491.586 447.211 490.594 446.52Q489.602 445.824 488.074 445.801Q486.637 445.762 485.734 446.344Q484.836 446.926 484.836 447.887Q484.836 448.426 485.16 448.809Q485.488 449.188 486.344 449.527Q487.199 449.863 488.789 450.262Q490.648 450.738 491.711 451.266Q492.773 451.789 493.223 452.5Q493.676 453.211 493.676 454.262Q493.676 456.176 492.254 457.27Q490.836 458.363 488.352 458.363ZM512.914 453.039Q512.086 453.039 511.41 452.656Q510.738 452.273 510.336 451.613Q509.938 450.949 509.938 450.125Q509.938 449.301 510.336 448.633Q510.738 447.961 511.406 447.586Q512.074 447.211 512.914 447.211Q513.688 447.211 514.336 447.586Q514.988 447.961 515.379 448.625Q515.773 449.289 515.773 450.125Q515.773 450.949 515.379 451.613Q514.988 452.273 514.336 452.656Q513.688 453.039 512.914 453.039ZM532.775 458L532.775 440L544.025 440L544.025 441.762L534.611 441.762L534.611 447.988L542.525 447.988L542.525 449.75L534.611 449.75L534.611 456.238L544.025 456.238L544.025 458L532.775 458ZM550.673 458L545.775 444.5L547.638 444.5L551.627 455.602L555.588 444.5L557.474 444.5L552.576 458L550.673 458ZM559.975 441.938L559.975 439.875L561.811 439.875L561.811 441.938L559.975 441.938ZM559.975 458L559.975 444.5L561.811 444.5L561.811 458L559.975 458ZM570.801 458.375Q568.914 458.375 567.574 457.434Q566.238 456.488 565.523 454.875Q564.813 453.262 564.813 451.238Q564.813 449.227 565.52 447.613Q566.227 446 567.551 445.062Q568.875 444.125 570.727 444.125Q572.625 444.125 573.926 445.051Q575.227 445.977 575.895 447.582Q576.563 449.188 576.563 451.238Q576.563 453.25 575.898 454.871Q575.238 456.488 573.949 457.434Q572.664 458.375 570.801 458.375ZM570.988 456.664Q572.426 456.664 573.363 455.965Q574.301 455.262 574.762 454.031Q575.227 452.801 575.227 451.238Q575.227 449.648 574.762 448.43Q574.301 447.211 573.367 446.523Q572.438 445.836 571.023 445.836Q569.574 445.836 568.625 446.551Q567.676 447.262 567.219 448.488Q566.762 449.711 566.762 451.238Q566.762 452.773 567.231 454.008Q567.699 455.238 568.637 455.953Q569.574 456.664 570.988 456.664ZM575.227 458L575.227 447.836L575.023 447.836L575.023 440L576.875 440L576.875 458L575.227 458ZM586.086 458.375Q584.113 458.375 582.668 457.5Q581.227 456.625 580.426 455.039Q579.625 453.449 579.625 451.312Q579.625 449.102 580.41 447.488Q581.199 445.875 582.629 445Q584.063 444.125 586.012 444.125Q588.012 444.125 589.422 445.043Q590.836 445.961 591.563 447.676Q592.289 449.387 592.227 451.762L590.352 451.762L590.352 451.113Q590.301 448.488 589.219 447.152Q588.137 445.812 586.063 445.812Q583.887 445.812 582.731 447.227Q581.574 448.637 581.574 451.25Q581.574 453.801 582.731 455.207Q583.887 456.613 586.012 456.613Q587.461 456.613 588.543 455.945Q589.625 455.273 590.25 454.012L591.961 454.676Q591.164 456.438 589.606 457.406Q588.051 458.375 586.086 458.375ZM580.926 451.762L580.926 450.227L591.238 450.227L591.238 451.762L580.926 451.762ZM604.738 458L604.738 451.113Q604.738 449.988 604.523 449.047Q604.312 448.102 603.843 447.395Q603.374 446.688 602.628 446.301Q601.886 445.914 600.823 445.914Q599.851 445.914 599.105 446.25Q598.363 446.586 597.855 447.219Q597.351 447.852 597.085 448.75Q596.823 449.648 596.823 450.801L595.527 450.512Q595.527 448.438 596.249 447.027Q596.976 445.613 598.249 444.891Q599.527 444.164 601.175 444.164Q602.386 444.164 603.292 444.539Q604.198 444.914 604.831 445.551Q605.464 446.188 605.851 447.008Q606.238 447.824 606.413 448.746Q606.589 449.664 606.589 450.574L606.589 458L604.738 458ZM594.976 458L594.976 444.5L596.636 444.5L596.636 447.824L596.823 447.824L596.823 458L594.976 458ZM615.439 458.375Q613.4 458.375 611.986 457.465Q610.576 456.551 609.841 454.945Q609.111 453.336 609.088 451.25Q609.111 449.125 609.861 447.52Q610.611 445.914 612.025 445.02Q613.439 444.125 615.451 444.125Q617.502 444.125 619.017 445.125Q620.537 446.125 621.099 447.863L619.298 448.438Q618.826 447.227 617.795 446.559Q616.763 445.887 615.439 445.887Q613.951 445.887 612.974 446.57Q612.002 447.25 611.525 448.465Q611.048 449.676 611.037 451.25Q611.064 453.676 612.162 455.145Q613.263 456.613 615.439 456.613Q616.814 456.613 617.783 455.984Q618.752 455.352 619.252 454.137L621.099 454.688Q620.349 456.488 618.9 457.434Q617.451 458.375 615.439 458.375ZM629.386 458.375Q627.413 458.375 625.968 457.5Q624.527 456.625 623.726 455.039Q622.925 453.449 622.925 451.312Q622.925 449.102 623.71 447.488Q624.499 445.875 625.929 445Q627.363 444.125 629.312 444.125Q631.312 444.125 632.722 445.043Q634.136 445.961 634.863 447.676Q635.589 449.387 635.527 451.762L633.652 451.762L633.652 451.113Q633.601 448.488 632.519 447.152Q631.437 445.812 629.363 445.812Q627.187 445.812 626.031 447.227Q624.874 448.637 624.874 451.25Q624.874 453.801 626.031 455.207Q627.187 456.613 629.312 456.613Q630.761 456.613 631.843 455.945Q632.925 455.273 633.55 454.012L635.261 454.676Q634.464 456.438 632.906 457.406Q631.351 458.375 629.386 458.375ZM624.226 451.762L624.226 450.227L634.538 450.227L634.538 451.762L624.226 451.762ZM638.038 450.914L638.038 449.336L645.538 449.336L645.538 450.914L638.038 450.914ZM652.651 458.375Q651.123 458.375 650.092 457.824Q649.061 457.273 648.549 456.363Q648.038 455.449 648.038 454.375Q648.038 453.273 648.479 452.492Q648.924 451.711 649.694 451.211Q650.463 450.711 651.475 450.449Q652.498 450.199 653.741 450.008Q654.987 449.812 656.178 449.668Q657.373 449.523 658.276 449.387L657.623 449.789Q657.663 447.789 656.85 446.828Q656.038 445.863 654.026 445.863Q652.639 445.863 651.682 446.488Q650.725 447.113 650.338 448.461L648.549 447.938Q649.014 446.125 650.413 445.125Q651.811 444.125 654.049 444.125Q655.901 444.125 657.194 444.82Q658.487 445.512 659.026 446.824Q659.276 447.414 659.35 448.141Q659.424 448.863 659.424 449.613L659.424 458L657.788 458L657.788 454.613L658.264 454.812Q657.577 456.551 656.123 457.465Q654.674 458.375 652.651 458.375ZM652.862 456.789Q654.151 456.789 655.112 456.328Q656.077 455.863 656.663 455.059Q657.248 454.25 657.424 453.238Q657.577 452.586 657.588 451.805Q657.6 451.023 657.6 450.637L658.299 451Q657.362 451.125 656.268 451.25Q655.174 451.375 654.116 451.539Q653.061 451.699 652.213 451.926Q651.639 452.086 651.1 452.383Q650.561 452.676 650.217 453.164Q649.873 453.648 649.873 454.375Q649.873 454.961 650.166 455.512Q650.463 456.062 651.12 456.426Q651.776 456.789 652.862 456.789ZM665.55 458L661.425 444.488L663.261 444.5L666.464 454.988L669.675 444.5L671.351 444.5L674.562 454.988L677.788 444.5L679.613 444.5L675.488 458L673.886 458L670.511 447.25L667.152 458L665.55 458ZM685.726 458.375Q684.199 458.375 683.167 457.824Q682.136 457.273 681.624 456.363Q681.113 455.449 681.113 454.375Q681.113 453.273 681.554 452.492Q681.999 451.711 682.769 451.211Q683.538 450.711 684.55 450.449Q685.574 450.199 686.816 450.008Q688.062 449.812 689.253 449.668Q690.449 449.523 691.351 449.387L690.699 449.789Q690.738 447.789 689.925 446.828Q689.113 445.863 687.101 445.863Q685.714 445.863 684.757 446.488Q683.8 447.113 683.413 448.461L681.624 447.938Q682.089 446.125 683.488 445.125Q684.886 444.125 687.124 444.125Q688.976 444.125 690.269 444.82Q691.562 445.512 692.101 446.824Q692.351 447.414 692.425 448.141Q692.499 448.863 692.499 449.613L692.499 458L690.863 458L690.863 454.613L691.339 454.812Q690.652 456.551 689.199 457.465Q687.749 458.375 685.726 458.375ZM685.937 456.789Q687.226 456.789 688.187 456.328Q689.152 455.863 689.738 455.059Q690.324 454.25 690.499 453.238Q690.652 452.586 690.663 451.805Q690.675 451.023 690.675 450.637L691.374 451Q690.437 451.125 689.343 451.25Q688.249 451.375 687.191 451.539Q686.136 451.699 685.288 451.926Q684.714 452.086 684.175 452.383Q683.636 452.676 683.292 453.164Q682.949 453.648 682.949 454.375Q682.949 454.961 683.241 455.512Q683.538 456.062 684.195 456.426Q684.851 456.789 685.937 456.789ZM695.75 458L695.75 444.5L697.399 444.5L697.399 447.75L697.074 447.324Q697.301 446.727 697.66 446.219Q698.024 445.711 698.449 445.387Q698.977 444.926 699.676 444.684Q700.375 444.438 701.086 444.395Q701.801 444.352 702.387 444.5L702.387 446.227Q701.649 446.039 700.774 446.141Q699.899 446.238 699.164 446.836Q698.488 447.363 698.149 448.094Q697.813 448.824 697.699 449.645Q697.586 450.461 697.586 451.262L697.586 458L695.75 458ZM710.474 458.375Q708.501 458.375 707.056 457.5Q705.614 456.625 704.813 455.039Q704.013 453.449 704.013 451.312Q704.013 449.102 704.798 447.488Q705.587 445.875 707.016 445Q708.45 444.125 710.399 444.125Q712.399 444.125 713.809 445.043Q715.224 445.961 715.95 447.676Q716.677 449.387 716.614 451.762L714.739 451.762L714.739 451.113Q714.688 448.488 713.606 447.152Q712.524 445.812 710.45 445.812Q708.274 445.812 707.118 447.227Q705.962 448.637 705.962 451.25Q705.962 453.801 707.118 455.207Q708.274 456.613 710.399 456.613Q711.849 456.613 712.931 455.945Q714.013 455.273 714.638 454.012L716.349 454.676Q715.552 456.438 713.993 457.406Q712.438 458.375 710.474 458.375ZM705.313 451.762L705.313 450.227L715.626 450.227L715.626 451.762L705.313 451.762ZM728.238 458.375Q726.711 458.375 725.68 457.824Q724.649 457.273 724.137 456.363Q723.625 455.449 723.625 454.375Q723.625 453.273 724.066 452.492Q724.512 451.711 725.281 451.211Q726.051 450.711 727.063 450.449Q728.086 450.199 729.328 450.008Q730.574 449.812 731.766 449.668Q732.961 449.523 733.863 449.387L733.211 449.789Q733.25 447.789 732.438 446.828Q731.625 445.863 729.613 445.863Q728.227 445.863 727.27 446.488Q726.313 447.113 725.926 448.461L724.137 447.938Q724.602 446.125 726 445.125Q727.399 444.125 729.637 444.125Q731.488 444.125 732.781 444.82Q734.074 445.512 734.613 446.824Q734.863 447.414 734.938 448.141Q735.012 448.863 735.012 449.613L735.012 458L733.375 458L733.375 454.613L733.852 454.812Q733.164 456.551 731.711 457.465Q730.262 458.375 728.238 458.375ZM728.449 456.789Q729.738 456.789 730.699 456.328Q731.664 455.863 732.25 455.059Q732.836 454.25 733.012 453.238Q733.164 452.586 733.176 451.805Q733.188 451.023 733.188 450.637L733.887 451Q732.949 451.125 731.856 451.25Q730.762 451.375 729.703 451.539Q728.649 451.699 727.801 451.926Q727.227 452.086 726.688 452.383Q726.149 452.676 725.805 453.164Q725.461 453.648 725.461 454.375Q725.461 454.961 725.754 455.512Q726.051 456.062 726.707 456.426Q727.363 456.789 728.449 456.789ZM748.013 458L748.013 451.113Q748.013 449.988 747.798 449.047Q747.587 448.102 747.118 447.395Q746.649 446.688 745.903 446.301Q745.161 445.914 744.099 445.914Q743.126 445.914 742.38 446.25Q741.638 446.586 741.13 447.219Q740.626 447.852 740.36 448.75Q740.099 449.648 740.099 450.801L738.802 450.512Q738.802 448.438 739.524 447.027Q740.251 445.613 741.524 444.891Q742.802 444.164 744.45 444.164Q745.661 444.164 746.567 444.539Q747.474 444.914 748.106 445.551Q748.739 446.188 749.126 447.008Q749.513 447.824 749.688 448.746Q749.864 449.664 749.864 450.574L749.864 458L748.013 458ZM738.251 458L738.251 444.5L739.911 444.5L739.911 447.824L740.099 447.824L740.099 458L738.251 458ZM756.976 458.375Q755.449 458.375 754.417 457.824Q753.386 457.273 752.874 456.363Q752.363 455.449 752.363 454.375Q752.363 453.273 752.804 452.492Q753.249 451.711 754.019 451.211Q754.788 450.711 755.8 450.449Q756.824 450.199 758.066 450.008Q759.312 449.812 760.503 449.668Q761.699 449.523 762.601 449.387L761.949 449.789Q761.988 447.789 761.175 446.828Q760.363 445.863 758.351 445.863Q756.964 445.863 756.007 446.488Q755.05 447.113 754.663 448.461L752.874 447.938Q753.339 446.125 754.738 445.125Q756.136 444.125 758.374 444.125Q760.226 444.125 761.519 444.82Q762.812 445.512 763.351 446.824Q763.601 447.414 763.675 448.141Q763.749 448.863 763.749 449.613L763.749 458L762.113 458L762.113 454.613L762.589 454.812Q761.902 456.551 760.449 457.465Q758.999 458.375 756.976 458.375ZM757.187 456.789Q758.476 456.789 759.437 456.328Q760.402 455.863 760.988 455.059Q761.574 454.25 761.749 453.238Q761.902 452.586 761.913 451.805Q761.925 451.023 761.925 450.637L762.624 451Q761.687 451.125 760.593 451.25Q759.499 451.375 758.441 451.539Q757.386 451.699 756.538 451.926Q755.964 452.086 755.425 452.383Q754.886 452.676 754.542 453.164Q754.199 453.648 754.199 454.375Q754.199 454.961 754.491 455.512Q754.788 456.062 755.445 456.426Q756.101 456.789 757.187 456.789ZM767.25 458L767.25 439.625L769.086 439.625L769.086 458L767.25 458ZM774.763 464L777.377 456.914L777.412 459.012L771.502 444.5L773.451 444.5L778.299 456.637L777.502 456.637L781.974 444.5L783.849 444.5L776.599 464L774.763 464ZM791.064 458.363Q788.689 458.363 787.158 457.34Q785.627 456.312 785.275 454.488L787.15 454.176Q787.451 455.324 788.517 456.008Q789.588 456.688 791.162 456.688Q792.701 456.688 793.588 456.043Q794.474 455.398 794.474 454.289Q794.474 453.664 794.193 453.27Q793.912 452.875 793.049 452.539Q792.189 452.199 790.474 451.738Q788.638 451.238 787.599 450.738Q786.564 450.238 786.127 449.582Q785.689 448.926 785.689 447.977Q785.689 446.824 786.338 445.957Q786.986 445.086 788.134 444.605Q789.287 444.125 790.814 444.125Q792.338 444.125 793.545 444.621Q794.752 445.113 795.486 446Q796.224 446.887 796.361 448.062L794.486 448.398Q794.299 447.211 793.306 446.52Q792.314 445.824 790.787 445.801Q789.349 445.762 788.447 446.344Q787.549 446.926 787.549 447.887Q787.549 448.426 787.873 448.809Q788.201 449.188 789.056 449.527Q789.912 449.863 791.502 450.262Q793.361 450.738 794.424 451.266Q795.486 451.789 795.935 452.5Q796.388 453.211 796.388 454.262Q796.388 456.176 794.966 457.27Q793.549 458.363 791.064 458.363ZM799.4 441.938L799.4 439.875L801.236 439.875L801.236 441.938L799.4 441.938ZM799.4 458L799.4 444.5L801.236 444.5L801.236 458L799.4 458ZM810.027 458.363Q807.652 458.363 806.12 457.34Q804.589 456.312 804.238 454.488L806.113 454.176Q806.413 455.324 807.48 456.008Q808.55 456.688 810.124 456.688Q811.663 456.688 812.55 456.043Q813.437 455.398 813.437 454.289Q813.437 453.664 813.156 453.27Q812.874 452.875 812.011 452.539Q811.152 452.199 809.437 451.738Q807.601 451.238 806.562 450.738Q805.527 450.238 805.089 449.582Q804.652 448.926 804.652 447.977Q804.652 446.824 805.3 445.957Q805.949 445.086 807.097 444.605Q808.249 444.125 809.777 444.125Q811.3 444.125 812.507 444.621Q813.714 445.113 814.449 446Q815.187 446.887 815.324 448.062L813.449 448.398Q813.261 447.211 812.269 446.52Q811.277 445.824 809.749 445.801Q808.312 445.762 807.409 446.344Q806.511 446.926 806.511 447.887Q806.511 448.426 806.835 448.809Q807.163 449.188 808.019 449.527Q808.874 449.863 810.464 450.262Q812.324 450.738 813.386 451.266Q814.449 451.789 814.898 452.5Q815.351 453.211 815.351 454.262Q815.351 456.176 813.929 457.27Q812.511 458.363 810.027 458.363Z" fill="#AEBACB" data-outlined-text="Market context, rich trade plans, evidence-aware analysis"/>
  <rect x="96" y="516" width="98" height="8" rx="4" fill="#E56F2D"/>
</svg>
